<mxfile host="app.diagrams.net" agent="Mozilla/5.0 (Windows NT 10.0; Win64; x64) AppleWebKit/537.36 (KHTML, like Gecko) Chrome/135.0.0.0 Safari/537.36" version="26.2.14" pages="5">
  <diagram name="第 1 页" id="2GDH76MVl6VmWbq02Grh">
    <mxGraphModel dx="1453" dy="730" grid="1" gridSize="10" guides="1" tooltips="1" connect="1" arrows="1" fold="1" page="1" pageScale="1" pageWidth="827" pageHeight="1169" math="0" shadow="0">
      <root>
        <mxCell id="0" />
        <mxCell id="1" parent="0" />
        <mxCell id="zZmuXaOG9Saka1yVLpwK-1" value="访客" style="shape=umlActor;verticalLabelPosition=bottom;verticalAlign=top;html=1;" vertex="1" parent="1">
          <mxGeometry x="120" y="180" width="30" height="60" as="geometry" />
        </mxCell>
        <mxCell id="zZmuXaOG9Saka1yVLpwK-4" value="查看系统首页" style="ellipse;whiteSpace=wrap;html=1;" vertex="1" parent="1">
          <mxGeometry x="220" y="120" width="150" height="50" as="geometry" />
        </mxCell>
        <mxCell id="zZmuXaOG9Saka1yVLpwK-5" value="查看工作岗位" style="ellipse;whiteSpace=wrap;html=1;" vertex="1" parent="1">
          <mxGeometry x="220" y="180" width="150" height="50" as="geometry" />
        </mxCell>
        <mxCell id="zZmuXaOG9Saka1yVLpwK-6" value="查看求职请求" style="ellipse;whiteSpace=wrap;html=1;" vertex="1" parent="1">
          <mxGeometry x="220" y="250" width="150" height="50" as="geometry" />
        </mxCell>
        <mxCell id="zZmuXaOG9Saka1yVLpwK-13" value="" style="endArrow=none;html=1;rounded=0;entryX=0.007;entryY=0.647;entryDx=0;entryDy=0;entryPerimeter=0;" edge="1" parent="1" target="zZmuXaOG9Saka1yVLpwK-4">
          <mxGeometry width="50" height="50" relative="1" as="geometry">
            <mxPoint x="160" y="210" as="sourcePoint" />
            <mxPoint x="440" y="350" as="targetPoint" />
          </mxGeometry>
        </mxCell>
        <mxCell id="zZmuXaOG9Saka1yVLpwK-14" value="" style="endArrow=none;html=1;rounded=0;entryX=0;entryY=0.5;entryDx=0;entryDy=0;" edge="1" parent="1" target="zZmuXaOG9Saka1yVLpwK-5">
          <mxGeometry width="50" height="50" relative="1" as="geometry">
            <mxPoint x="160" y="210" as="sourcePoint" />
            <mxPoint x="231" y="162" as="targetPoint" />
          </mxGeometry>
        </mxCell>
        <mxCell id="zZmuXaOG9Saka1yVLpwK-15" value="" style="endArrow=none;html=1;rounded=0;entryX=0;entryY=0.5;entryDx=0;entryDy=0;" edge="1" parent="1" target="zZmuXaOG9Saka1yVLpwK-6">
          <mxGeometry width="50" height="50" relative="1" as="geometry">
            <mxPoint x="160" y="210" as="sourcePoint" />
            <mxPoint x="241" y="172" as="targetPoint" />
          </mxGeometry>
        </mxCell>
      </root>
    </mxGraphModel>
  </diagram>
  <diagram id="-imuxvIKcpQewfqmrpBF" name="第 2 页">
    <mxGraphModel dx="1453" dy="730" grid="1" gridSize="10" guides="1" tooltips="1" connect="1" arrows="1" fold="1" page="1" pageScale="1" pageWidth="827" pageHeight="1169" math="0" shadow="0">
      <root>
        <mxCell id="0" />
        <mxCell id="1" parent="0" />
        <mxCell id="9Ub3UlrLEFwC5tRIosp9-1" value="应聘者" style="shape=umlActor;verticalLabelPosition=bottom;verticalAlign=top;html=1;" vertex="1" parent="1">
          <mxGeometry x="120" y="180" width="30" height="60" as="geometry" />
        </mxCell>
        <mxCell id="9Ub3UlrLEFwC5tRIosp9-2" value="查看系统首页" style="ellipse;whiteSpace=wrap;html=1;" vertex="1" parent="1">
          <mxGeometry x="380" y="80" width="150" height="50" as="geometry" />
        </mxCell>
        <mxCell id="9Ub3UlrLEFwC5tRIosp9-3" value="查看工作岗位" style="ellipse;whiteSpace=wrap;html=1;" vertex="1" parent="1">
          <mxGeometry x="480" y="140" width="150" height="50" as="geometry" />
        </mxCell>
        <mxCell id="9Ub3UlrLEFwC5tRIosp9-4" value="查看/发送求职请求" style="ellipse;whiteSpace=wrap;html=1;" vertex="1" parent="1">
          <mxGeometry x="480" y="250" width="150" height="50" as="geometry" />
        </mxCell>
        <mxCell id="9Ub3UlrLEFwC5tRIosp9-5" value="" style="endArrow=none;html=1;rounded=0;entryX=0.007;entryY=0.647;entryDx=0;entryDy=0;entryPerimeter=0;" edge="1" parent="1" target="9Ub3UlrLEFwC5tRIosp9-2">
          <mxGeometry width="50" height="50" relative="1" as="geometry">
            <mxPoint x="160" y="210" as="sourcePoint" />
            <mxPoint x="440" y="350" as="targetPoint" />
          </mxGeometry>
        </mxCell>
        <mxCell id="9Ub3UlrLEFwC5tRIosp9-6" value="" style="endArrow=none;html=1;rounded=0;entryX=0;entryY=0.5;entryDx=0;entryDy=0;" edge="1" parent="1" target="9Ub3UlrLEFwC5tRIosp9-3">
          <mxGeometry width="50" height="50" relative="1" as="geometry">
            <mxPoint x="160" y="210" as="sourcePoint" />
            <mxPoint x="231" y="162" as="targetPoint" />
          </mxGeometry>
        </mxCell>
        <mxCell id="9Ub3UlrLEFwC5tRIosp9-7" value="" style="endArrow=none;html=1;rounded=0;entryX=0;entryY=0.5;entryDx=0;entryDy=0;" edge="1" parent="1" target="9Ub3UlrLEFwC5tRIosp9-4">
          <mxGeometry width="50" height="50" relative="1" as="geometry">
            <mxPoint x="160" y="210" as="sourcePoint" />
            <mxPoint x="241" y="172" as="targetPoint" />
          </mxGeometry>
        </mxCell>
        <mxCell id="9Ub3UlrLEFwC5tRIosp9-8" value="登录/注册功能" style="ellipse;whiteSpace=wrap;html=1;" vertex="1" parent="1">
          <mxGeometry x="310" y="20" width="150" height="50" as="geometry" />
        </mxCell>
        <mxCell id="9Ub3UlrLEFwC5tRIosp9-9" value="" style="endArrow=none;html=1;rounded=0;entryX=0;entryY=1;entryDx=0;entryDy=0;" edge="1" parent="1" target="9Ub3UlrLEFwC5tRIosp9-8">
          <mxGeometry width="50" height="50" relative="1" as="geometry">
            <mxPoint x="160" y="210" as="sourcePoint" />
            <mxPoint x="331" y="122" as="targetPoint" />
          </mxGeometry>
        </mxCell>
        <mxCell id="9Ub3UlrLEFwC5tRIosp9-11" value="查看/修改个人信息" style="ellipse;whiteSpace=wrap;html=1;" vertex="1" parent="1">
          <mxGeometry x="590" y="200" width="150" height="50" as="geometry" />
        </mxCell>
        <mxCell id="9Ub3UlrLEFwC5tRIosp9-12" value="" style="endArrow=none;html=1;rounded=0;entryX=0;entryY=0.5;entryDx=0;entryDy=0;" edge="1" parent="1" target="9Ub3UlrLEFwC5tRIosp9-11">
          <mxGeometry width="50" height="50" relative="1" as="geometry">
            <mxPoint x="160" y="210" as="sourcePoint" />
            <mxPoint x="420" y="265" as="targetPoint" />
          </mxGeometry>
        </mxCell>
        <mxCell id="9Ub3UlrLEFwC5tRIosp9-13" value="查看/发送留言" style="ellipse;whiteSpace=wrap;html=1;" vertex="1" parent="1">
          <mxGeometry x="330" y="400" width="150" height="50" as="geometry" />
        </mxCell>
        <mxCell id="9Ub3UlrLEFwC5tRIosp9-14" value="" style="endArrow=none;html=1;rounded=0;entryX=0;entryY=0.5;entryDx=0;entryDy=0;" edge="1" parent="1" target="9Ub3UlrLEFwC5tRIosp9-13">
          <mxGeometry width="50" height="50" relative="1" as="geometry">
            <mxPoint x="160" y="210" as="sourcePoint" />
            <mxPoint x="390" y="335" as="targetPoint" />
          </mxGeometry>
        </mxCell>
        <mxCell id="9Ub3UlrLEFwC5tRIosp9-15" value="查看面试邀请" style="ellipse;whiteSpace=wrap;html=1;" vertex="1" parent="1">
          <mxGeometry x="390" y="310" width="150" height="50" as="geometry" />
        </mxCell>
        <mxCell id="9Ub3UlrLEFwC5tRIosp9-16" value="" style="endArrow=none;html=1;rounded=0;entryX=0.011;entryY=0.66;entryDx=0;entryDy=0;entryPerimeter=0;" edge="1" parent="1" target="9Ub3UlrLEFwC5tRIosp9-15">
          <mxGeometry width="50" height="50" relative="1" as="geometry">
            <mxPoint x="160" y="210" as="sourcePoint" />
            <mxPoint x="480" y="295" as="targetPoint" />
          </mxGeometry>
        </mxCell>
      </root>
    </mxGraphModel>
  </diagram>
  <diagram id="fpXQRVmt6rq48pq56r_s" name="第 3 页">
    <mxGraphModel dx="1453" dy="730" grid="1" gridSize="10" guides="1" tooltips="1" connect="1" arrows="1" fold="1" page="1" pageScale="1" pageWidth="827" pageHeight="1169" math="0" shadow="0">
      <root>
        <mxCell id="0" />
        <mxCell id="1" parent="0" />
        <mxCell id="W1v53pv1Vl7Q0a2-f4ht-1" value="企业用户" style="shape=umlActor;verticalLabelPosition=bottom;verticalAlign=top;html=1;" vertex="1" parent="1">
          <mxGeometry x="120" y="180" width="30" height="60" as="geometry" />
        </mxCell>
        <mxCell id="W1v53pv1Vl7Q0a2-f4ht-2" value="查看系统首页" style="ellipse;whiteSpace=wrap;html=1;" vertex="1" parent="1">
          <mxGeometry x="380" y="80" width="150" height="50" as="geometry" />
        </mxCell>
        <mxCell id="W1v53pv1Vl7Q0a2-f4ht-3" value="查看/修改工作岗位" style="ellipse;whiteSpace=wrap;html=1;" vertex="1" parent="1">
          <mxGeometry x="480" y="140" width="150" height="50" as="geometry" />
        </mxCell>
        <mxCell id="W1v53pv1Vl7Q0a2-f4ht-4" value="查看/接受求职请求" style="ellipse;whiteSpace=wrap;html=1;" vertex="1" parent="1">
          <mxGeometry x="480" y="250" width="150" height="50" as="geometry" />
        </mxCell>
        <mxCell id="W1v53pv1Vl7Q0a2-f4ht-5" value="" style="endArrow=none;html=1;rounded=0;entryX=0.007;entryY=0.647;entryDx=0;entryDy=0;entryPerimeter=0;" edge="1" parent="1" target="W1v53pv1Vl7Q0a2-f4ht-2">
          <mxGeometry width="50" height="50" relative="1" as="geometry">
            <mxPoint x="160" y="210" as="sourcePoint" />
            <mxPoint x="440" y="350" as="targetPoint" />
          </mxGeometry>
        </mxCell>
        <mxCell id="W1v53pv1Vl7Q0a2-f4ht-6" value="" style="endArrow=none;html=1;rounded=0;entryX=0;entryY=0.5;entryDx=0;entryDy=0;" edge="1" parent="1" target="W1v53pv1Vl7Q0a2-f4ht-3">
          <mxGeometry width="50" height="50" relative="1" as="geometry">
            <mxPoint x="160" y="210" as="sourcePoint" />
            <mxPoint x="231" y="162" as="targetPoint" />
          </mxGeometry>
        </mxCell>
        <mxCell id="W1v53pv1Vl7Q0a2-f4ht-7" value="" style="endArrow=none;html=1;rounded=0;entryX=0;entryY=0.5;entryDx=0;entryDy=0;" edge="1" parent="1" target="W1v53pv1Vl7Q0a2-f4ht-4">
          <mxGeometry width="50" height="50" relative="1" as="geometry">
            <mxPoint x="160" y="210" as="sourcePoint" />
            <mxPoint x="241" y="172" as="targetPoint" />
          </mxGeometry>
        </mxCell>
        <mxCell id="W1v53pv1Vl7Q0a2-f4ht-8" value="登录/注册功能" style="ellipse;whiteSpace=wrap;html=1;" vertex="1" parent="1">
          <mxGeometry x="310" y="20" width="150" height="50" as="geometry" />
        </mxCell>
        <mxCell id="W1v53pv1Vl7Q0a2-f4ht-9" value="" style="endArrow=none;html=1;rounded=0;entryX=0;entryY=1;entryDx=0;entryDy=0;" edge="1" parent="1" target="W1v53pv1Vl7Q0a2-f4ht-8">
          <mxGeometry width="50" height="50" relative="1" as="geometry">
            <mxPoint x="160" y="210" as="sourcePoint" />
            <mxPoint x="331" y="122" as="targetPoint" />
          </mxGeometry>
        </mxCell>
        <mxCell id="W1v53pv1Vl7Q0a2-f4ht-10" value="查看/修改企业信息" style="ellipse;whiteSpace=wrap;html=1;" vertex="1" parent="1">
          <mxGeometry x="590" y="200" width="150" height="50" as="geometry" />
        </mxCell>
        <mxCell id="W1v53pv1Vl7Q0a2-f4ht-11" value="" style="endArrow=none;html=1;rounded=0;entryX=0;entryY=0.5;entryDx=0;entryDy=0;" edge="1" parent="1" target="W1v53pv1Vl7Q0a2-f4ht-10">
          <mxGeometry width="50" height="50" relative="1" as="geometry">
            <mxPoint x="160" y="210" as="sourcePoint" />
            <mxPoint x="420" y="265" as="targetPoint" />
          </mxGeometry>
        </mxCell>
        <mxCell id="W1v53pv1Vl7Q0a2-f4ht-12" value="查看留言" style="ellipse;whiteSpace=wrap;html=1;" vertex="1" parent="1">
          <mxGeometry x="330" y="400" width="150" height="50" as="geometry" />
        </mxCell>
        <mxCell id="W1v53pv1Vl7Q0a2-f4ht-13" value="" style="endArrow=none;html=1;rounded=0;entryX=0;entryY=0.5;entryDx=0;entryDy=0;" edge="1" parent="1" target="W1v53pv1Vl7Q0a2-f4ht-12">
          <mxGeometry width="50" height="50" relative="1" as="geometry">
            <mxPoint x="160" y="210" as="sourcePoint" />
            <mxPoint x="390" y="335" as="targetPoint" />
          </mxGeometry>
        </mxCell>
        <mxCell id="W1v53pv1Vl7Q0a2-f4ht-14" value="查看/发出面试邀请" style="ellipse;whiteSpace=wrap;html=1;" vertex="1" parent="1">
          <mxGeometry x="390" y="310" width="150" height="50" as="geometry" />
        </mxCell>
        <mxCell id="W1v53pv1Vl7Q0a2-f4ht-15" value="" style="endArrow=none;html=1;rounded=0;entryX=0.011;entryY=0.66;entryDx=0;entryDy=0;entryPerimeter=0;" edge="1" parent="1" target="W1v53pv1Vl7Q0a2-f4ht-14">
          <mxGeometry width="50" height="50" relative="1" as="geometry">
            <mxPoint x="160" y="210" as="sourcePoint" />
            <mxPoint x="480" y="295" as="targetPoint" />
          </mxGeometry>
        </mxCell>
      </root>
    </mxGraphModel>
  </diagram>
  <diagram id="1Z8jJP3rl6NMqyAC-Uxs" name="第 4 页">
    <mxGraphModel dx="1453" dy="730" grid="1" gridSize="10" guides="1" tooltips="1" connect="1" arrows="1" fold="1" page="1" pageScale="1" pageWidth="827" pageHeight="1169" math="0" shadow="0">
      <root>
        <mxCell id="0" />
        <mxCell id="1" parent="0" />
        <mxCell id="AjjdyYKxUBdp6-kctdac-1" value="系统管理员" style="shape=umlActor;verticalLabelPosition=bottom;verticalAlign=top;html=1;" vertex="1" parent="1">
          <mxGeometry x="120" y="180" width="30" height="60" as="geometry" />
        </mxCell>
        <mxCell id="AjjdyYKxUBdp6-kctdac-2" value="查看系统首页" style="ellipse;whiteSpace=wrap;html=1;" vertex="1" parent="1">
          <mxGeometry x="360" y="60" width="150" height="50" as="geometry" />
        </mxCell>
        <mxCell id="AjjdyYKxUBdp6-kctdac-3" value="查看/修改工作岗位" style="ellipse;whiteSpace=wrap;html=1;" vertex="1" parent="1">
          <mxGeometry x="450" y="110" width="150" height="50" as="geometry" />
        </mxCell>
        <mxCell id="AjjdyYKxUBdp6-kctdac-4" value="查看/删除/修改求职请求" style="ellipse;whiteSpace=wrap;html=1;" vertex="1" parent="1">
          <mxGeometry x="500" y="320" width="150" height="50" as="geometry" />
        </mxCell>
        <mxCell id="AjjdyYKxUBdp6-kctdac-5" value="" style="endArrow=none;html=1;rounded=0;entryX=0.007;entryY=0.647;entryDx=0;entryDy=0;entryPerimeter=0;" edge="1" parent="1" target="AjjdyYKxUBdp6-kctdac-2">
          <mxGeometry width="50" height="50" relative="1" as="geometry">
            <mxPoint x="160" y="210" as="sourcePoint" />
            <mxPoint x="440" y="350" as="targetPoint" />
          </mxGeometry>
        </mxCell>
        <mxCell id="AjjdyYKxUBdp6-kctdac-6" value="" style="endArrow=none;html=1;rounded=0;entryX=0;entryY=0.5;entryDx=0;entryDy=0;" edge="1" parent="1" target="AjjdyYKxUBdp6-kctdac-3">
          <mxGeometry width="50" height="50" relative="1" as="geometry">
            <mxPoint x="160" y="210" as="sourcePoint" />
            <mxPoint x="231" y="162" as="targetPoint" />
          </mxGeometry>
        </mxCell>
        <mxCell id="AjjdyYKxUBdp6-kctdac-7" value="" style="endArrow=none;html=1;rounded=0;entryX=0;entryY=0.5;entryDx=0;entryDy=0;" edge="1" parent="1" target="AjjdyYKxUBdp6-kctdac-4">
          <mxGeometry width="50" height="50" relative="1" as="geometry">
            <mxPoint x="160" y="210" as="sourcePoint" />
            <mxPoint x="241" y="172" as="targetPoint" />
          </mxGeometry>
        </mxCell>
        <mxCell id="AjjdyYKxUBdp6-kctdac-8" value="登录/注册功能" style="ellipse;whiteSpace=wrap;html=1;" vertex="1" parent="1">
          <mxGeometry x="264" y="10" width="150" height="50" as="geometry" />
        </mxCell>
        <mxCell id="AjjdyYKxUBdp6-kctdac-9" value="" style="endArrow=none;html=1;rounded=0;entryX=0;entryY=1;entryDx=0;entryDy=0;" edge="1" parent="1" target="AjjdyYKxUBdp6-kctdac-8">
          <mxGeometry width="50" height="50" relative="1" as="geometry">
            <mxPoint x="160" y="210" as="sourcePoint" />
            <mxPoint x="331" y="122" as="targetPoint" />
          </mxGeometry>
        </mxCell>
        <mxCell id="AjjdyYKxUBdp6-kctdac-10" value="查看/修改/添加企业信息" style="ellipse;whiteSpace=wrap;html=1;" vertex="1" parent="1">
          <mxGeometry x="540" y="170" width="150" height="50" as="geometry" />
        </mxCell>
        <mxCell id="AjjdyYKxUBdp6-kctdac-11" value="" style="endArrow=none;html=1;rounded=0;entryX=0;entryY=0.5;entryDx=0;entryDy=0;" edge="1" parent="1" target="AjjdyYKxUBdp6-kctdac-10">
          <mxGeometry width="50" height="50" relative="1" as="geometry">
            <mxPoint x="160" y="210" as="sourcePoint" />
            <mxPoint x="420" y="265" as="targetPoint" />
          </mxGeometry>
        </mxCell>
        <mxCell id="AjjdyYKxUBdp6-kctdac-12" value="查看/删除留言" style="ellipse;whiteSpace=wrap;html=1;" vertex="1" parent="1">
          <mxGeometry x="270" y="490" width="150" height="50" as="geometry" />
        </mxCell>
        <mxCell id="AjjdyYKxUBdp6-kctdac-13" value="" style="endArrow=none;html=1;rounded=0;entryX=0;entryY=0.5;entryDx=0;entryDy=0;" edge="1" parent="1" target="AjjdyYKxUBdp6-kctdac-12">
          <mxGeometry width="50" height="50" relative="1" as="geometry">
            <mxPoint x="160" y="210" as="sourcePoint" />
            <mxPoint x="390" y="335" as="targetPoint" />
          </mxGeometry>
        </mxCell>
        <mxCell id="AjjdyYKxUBdp6-kctdac-14" value="查看/修改/删除面试邀请" style="ellipse;whiteSpace=wrap;html=1;" vertex="1" parent="1">
          <mxGeometry x="370" y="440" width="150" height="50" as="geometry" />
        </mxCell>
        <mxCell id="AjjdyYKxUBdp6-kctdac-15" value="" style="endArrow=none;html=1;rounded=0;entryX=0.011;entryY=0.66;entryDx=0;entryDy=0;entryPerimeter=0;" edge="1" parent="1" target="AjjdyYKxUBdp6-kctdac-14">
          <mxGeometry width="50" height="50" relative="1" as="geometry">
            <mxPoint x="160" y="210" as="sourcePoint" />
            <mxPoint x="480" y="295" as="targetPoint" />
          </mxGeometry>
        </mxCell>
        <mxCell id="qaLExTulfCxYtcMh3SKy-1" value="查看/修改/添加应聘者信息" style="ellipse;whiteSpace=wrap;html=1;" vertex="1" parent="1">
          <mxGeometry x="560" y="250" width="150" height="50" as="geometry" />
        </mxCell>
        <mxCell id="qaLExTulfCxYtcMh3SKy-2" value="" style="endArrow=none;html=1;rounded=0;entryX=0.002;entryY=0.66;entryDx=0;entryDy=0;entryPerimeter=0;" edge="1" parent="1" target="qaLExTulfCxYtcMh3SKy-1">
          <mxGeometry width="50" height="50" relative="1" as="geometry">
            <mxPoint x="160" y="210" as="sourcePoint" />
            <mxPoint x="590" y="235" as="targetPoint" />
          </mxGeometry>
        </mxCell>
        <mxCell id="qaLExTulfCxYtcMh3SKy-3" value="管理员管理" style="ellipse;whiteSpace=wrap;html=1;" vertex="1" parent="1">
          <mxGeometry x="440" y="380" width="150" height="50" as="geometry" />
        </mxCell>
        <mxCell id="qaLExTulfCxYtcMh3SKy-4" value="" style="endArrow=none;html=1;rounded=0;entryX=0;entryY=0.5;entryDx=0;entryDy=0;" edge="1" parent="1" target="qaLExTulfCxYtcMh3SKy-3">
          <mxGeometry width="50" height="50" relative="1" as="geometry">
            <mxPoint x="160" y="210" as="sourcePoint" />
            <mxPoint x="490" y="335" as="targetPoint" />
          </mxGeometry>
        </mxCell>
      </root>
    </mxGraphModel>
  </diagram>
  <diagram id="lBaF6vBHtZ_Q816PpNov" name="第 5 页">
    <mxGraphModel dx="1211" dy="608" grid="1" gridSize="10" guides="1" tooltips="1" connect="1" arrows="1" fold="1" page="1" pageScale="1" pageWidth="827" pageHeight="1169" math="0" shadow="0">
      <root>
        <mxCell id="0" />
        <mxCell id="1" parent="0" />
        <mxCell id="vmAebD6o5vECsE8aH-xc-1" value="&lt;font style=&quot;font-size: 18px;&quot;&gt;开始&lt;/font&gt;" style="strokeWidth=2;html=1;shape=mxgraph.flowchart.start_1;whiteSpace=wrap;" vertex="1" parent="1">
          <mxGeometry x="315.01" y="40" width="120" height="40" as="geometry" />
        </mxCell>
        <mxCell id="vmAebD6o5vECsE8aH-xc-8" style="edgeStyle=orthogonalEdgeStyle;rounded=0;orthogonalLoop=1;jettySize=auto;html=1;exitX=1;exitY=0.5;exitDx=0;exitDy=0;exitPerimeter=0;entryX=0;entryY=0.5;entryDx=0;entryDy=0;" edge="1" parent="1" source="vmAebD6o5vECsE8aH-xc-3" target="vmAebD6o5vECsE8aH-xc-7">
          <mxGeometry relative="1" as="geometry" />
        </mxCell>
        <mxCell id="vmAebD6o5vECsE8aH-xc-9" value="N" style="edgeLabel;html=1;align=center;verticalAlign=middle;resizable=0;points=[];" vertex="1" connectable="0" parent="vmAebD6o5vECsE8aH-xc-8">
          <mxGeometry x="-0.03" y="-1" relative="1" as="geometry">
            <mxPoint y="-16" as="offset" />
          </mxGeometry>
        </mxCell>
        <mxCell id="vmAebD6o5vECsE8aH-xc-10" style="edgeStyle=orthogonalEdgeStyle;rounded=0;orthogonalLoop=1;jettySize=auto;html=1;exitX=0.5;exitY=1;exitDx=0;exitDy=0;exitPerimeter=0;entryX=0.5;entryY=0;entryDx=0;entryDy=0;" edge="1" parent="1" source="vmAebD6o5vECsE8aH-xc-3" target="vmAebD6o5vECsE8aH-xc-6">
          <mxGeometry relative="1" as="geometry" />
        </mxCell>
        <mxCell id="vmAebD6o5vECsE8aH-xc-11" value="Y" style="edgeLabel;html=1;align=center;verticalAlign=middle;resizable=0;points=[];" vertex="1" connectable="0" parent="vmAebD6o5vECsE8aH-xc-10">
          <mxGeometry x="-0.1507" relative="1" as="geometry">
            <mxPoint x="15" as="offset" />
          </mxGeometry>
        </mxCell>
        <mxCell id="vmAebD6o5vECsE8aH-xc-3" value="&lt;font style=&quot;font-size: 18px;&quot;&gt;是否登录&lt;/font&gt;" style="strokeWidth=2;html=1;shape=mxgraph.flowchart.decision;whiteSpace=wrap;" vertex="1" parent="1">
          <mxGeometry x="288.76" y="125" width="172.5" height="70" as="geometry" />
        </mxCell>
        <mxCell id="vmAebD6o5vECsE8aH-xc-5" style="edgeStyle=orthogonalEdgeStyle;rounded=0;orthogonalLoop=1;jettySize=auto;html=1;entryX=0.5;entryY=0;entryDx=0;entryDy=0;entryPerimeter=0;" edge="1" parent="1" source="vmAebD6o5vECsE8aH-xc-1" target="vmAebD6o5vECsE8aH-xc-3">
          <mxGeometry relative="1" as="geometry" />
        </mxCell>
        <mxCell id="vmAebD6o5vECsE8aH-xc-6" value="&lt;font style=&quot;font-size: 18px;&quot;&gt;已登录&lt;/font&gt;" style="rounded=1;whiteSpace=wrap;html=1;absoluteArcSize=1;arcSize=0;strokeWidth=2;" vertex="1" parent="1">
          <mxGeometry x="315.96" y="270" width="119.05" height="40" as="geometry" />
        </mxCell>
        <mxCell id="vmAebD6o5vECsE8aH-xc-15" style="edgeStyle=orthogonalEdgeStyle;rounded=0;orthogonalLoop=1;jettySize=auto;html=1;exitX=0.5;exitY=1;exitDx=0;exitDy=0;" edge="1" parent="1" source="vmAebD6o5vECsE8aH-xc-7" target="vmAebD6o5vECsE8aH-xc-12">
          <mxGeometry relative="1" as="geometry" />
        </mxCell>
        <mxCell id="vmAebD6o5vECsE8aH-xc-16" style="edgeStyle=orthogonalEdgeStyle;rounded=0;orthogonalLoop=1;jettySize=auto;html=1;exitX=0.5;exitY=1;exitDx=0;exitDy=0;entryX=0.5;entryY=0;entryDx=0;entryDy=0;" edge="1" parent="1" source="vmAebD6o5vECsE8aH-xc-7" target="vmAebD6o5vECsE8aH-xc-13">
          <mxGeometry relative="1" as="geometry" />
        </mxCell>
        <mxCell id="vmAebD6o5vECsE8aH-xc-17" style="edgeStyle=orthogonalEdgeStyle;rounded=0;orthogonalLoop=1;jettySize=auto;html=1;exitX=0.5;exitY=1;exitDx=0;exitDy=0;entryX=0.5;entryY=0;entryDx=0;entryDy=0;" edge="1" parent="1" source="vmAebD6o5vECsE8aH-xc-7" target="vmAebD6o5vECsE8aH-xc-14">
          <mxGeometry relative="1" as="geometry" />
        </mxCell>
        <mxCell id="vmAebD6o5vECsE8aH-xc-7" value="&lt;font style=&quot;font-size: 18px;&quot;&gt;访客&lt;/font&gt;" style="rounded=1;whiteSpace=wrap;html=1;absoluteArcSize=1;arcSize=0;strokeWidth=2;" vertex="1" parent="1">
          <mxGeometry x="947.5" y="142.5" width="100" height="35" as="geometry" />
        </mxCell>
        <mxCell id="vmAebD6o5vECsE8aH-xc-57" style="edgeStyle=orthogonalEdgeStyle;rounded=0;orthogonalLoop=1;jettySize=auto;html=1;exitX=0.5;exitY=1;exitDx=0;exitDy=0;" edge="1" parent="1" source="vmAebD6o5vECsE8aH-xc-12" target="vmAebD6o5vECsE8aH-xc-46">
          <mxGeometry relative="1" as="geometry">
            <Array as="points">
              <mxPoint x="858" y="820" />
              <mxPoint x="783" y="820" />
            </Array>
          </mxGeometry>
        </mxCell>
        <mxCell id="vmAebD6o5vECsE8aH-xc-12" value="&lt;font style=&quot;font-size: 18px;&quot;&gt;查看系统首页&lt;/font&gt;" style="rounded=1;whiteSpace=wrap;html=1;absoluteArcSize=1;arcSize=0;strokeWidth=2;" vertex="1" parent="1">
          <mxGeometry x="840" y="260" width="35" height="170" as="geometry" />
        </mxCell>
        <mxCell id="vmAebD6o5vECsE8aH-xc-53" style="edgeStyle=orthogonalEdgeStyle;rounded=0;orthogonalLoop=1;jettySize=auto;html=1;exitX=0.5;exitY=1;exitDx=0;exitDy=0;" edge="1" parent="1" source="vmAebD6o5vECsE8aH-xc-13" target="vmAebD6o5vECsE8aH-xc-46">
          <mxGeometry relative="1" as="geometry">
            <Array as="points">
              <mxPoint x="998" y="820" />
              <mxPoint x="783" y="820" />
            </Array>
          </mxGeometry>
        </mxCell>
        <mxCell id="vmAebD6o5vECsE8aH-xc-13" value="&lt;font style=&quot;font-size: 18px;&quot;&gt;查看工作岗位&lt;/font&gt;" style="rounded=1;whiteSpace=wrap;html=1;absoluteArcSize=1;arcSize=0;strokeWidth=2;" vertex="1" parent="1">
          <mxGeometry x="980" y="260" width="35" height="170" as="geometry" />
        </mxCell>
        <mxCell id="vmAebD6o5vECsE8aH-xc-54" style="edgeStyle=orthogonalEdgeStyle;rounded=0;orthogonalLoop=1;jettySize=auto;html=1;exitX=0.5;exitY=1;exitDx=0;exitDy=0;" edge="1" parent="1" source="vmAebD6o5vECsE8aH-xc-14" target="vmAebD6o5vECsE8aH-xc-46">
          <mxGeometry relative="1" as="geometry">
            <Array as="points">
              <mxPoint x="1128" y="820" />
              <mxPoint x="783" y="820" />
            </Array>
          </mxGeometry>
        </mxCell>
        <mxCell id="vmAebD6o5vECsE8aH-xc-14" value="&lt;font style=&quot;font-size: 18px;&quot;&gt;查看求职请求&lt;/font&gt;" style="rounded=1;whiteSpace=wrap;html=1;absoluteArcSize=1;arcSize=0;strokeWidth=2;" vertex="1" parent="1">
          <mxGeometry x="1110" y="260" width="35" height="170" as="geometry" />
        </mxCell>
        <mxCell id="vmAebD6o5vECsE8aH-xc-23" style="edgeStyle=orthogonalEdgeStyle;rounded=0;orthogonalLoop=1;jettySize=auto;html=1;exitX=0.5;exitY=1;exitDx=0;exitDy=0;exitPerimeter=0;" edge="1" parent="1" source="vmAebD6o5vECsE8aH-xc-18" target="vmAebD6o5vECsE8aH-xc-22">
          <mxGeometry relative="1" as="geometry" />
        </mxCell>
        <mxCell id="vmAebD6o5vECsE8aH-xc-24" style="edgeStyle=orthogonalEdgeStyle;rounded=0;orthogonalLoop=1;jettySize=auto;html=1;exitX=0.5;exitY=1;exitDx=0;exitDy=0;exitPerimeter=0;entryX=0.5;entryY=0;entryDx=0;entryDy=0;" edge="1" parent="1" source="vmAebD6o5vECsE8aH-xc-18" target="vmAebD6o5vECsE8aH-xc-21">
          <mxGeometry relative="1" as="geometry" />
        </mxCell>
        <mxCell id="vmAebD6o5vECsE8aH-xc-25" style="edgeStyle=orthogonalEdgeStyle;rounded=0;orthogonalLoop=1;jettySize=auto;html=1;exitX=0.5;exitY=1;exitDx=0;exitDy=0;exitPerimeter=0;" edge="1" parent="1" source="vmAebD6o5vECsE8aH-xc-18" target="vmAebD6o5vECsE8aH-xc-20">
          <mxGeometry relative="1" as="geometry" />
        </mxCell>
        <mxCell id="vmAebD6o5vECsE8aH-xc-18" value="&lt;font style=&quot;font-size: 18px;&quot;&gt;用户类别&lt;/font&gt;" style="strokeWidth=2;html=1;shape=mxgraph.flowchart.decision;whiteSpace=wrap;" vertex="1" parent="1">
          <mxGeometry x="290" y="350" width="172.5" height="70" as="geometry" />
        </mxCell>
        <mxCell id="vmAebD6o5vECsE8aH-xc-19" style="edgeStyle=orthogonalEdgeStyle;rounded=0;orthogonalLoop=1;jettySize=auto;html=1;exitX=0.5;exitY=1;exitDx=0;exitDy=0;entryX=0.5;entryY=0;entryDx=0;entryDy=0;entryPerimeter=0;" edge="1" parent="1" source="vmAebD6o5vECsE8aH-xc-6" target="vmAebD6o5vECsE8aH-xc-18">
          <mxGeometry relative="1" as="geometry" />
        </mxCell>
        <mxCell id="vmAebD6o5vECsE8aH-xc-43" style="edgeStyle=orthogonalEdgeStyle;rounded=0;orthogonalLoop=1;jettySize=auto;html=1;exitX=0.5;exitY=1;exitDx=0;exitDy=0;entryX=0.5;entryY=0;entryDx=0;entryDy=0;" edge="1" parent="1" source="vmAebD6o5vECsE8aH-xc-20" target="vmAebD6o5vECsE8aH-xc-42">
          <mxGeometry relative="1" as="geometry" />
        </mxCell>
        <mxCell id="vmAebD6o5vECsE8aH-xc-45" style="edgeStyle=orthogonalEdgeStyle;rounded=0;orthogonalLoop=1;jettySize=auto;html=1;exitX=0.5;exitY=1;exitDx=0;exitDy=0;entryX=0.5;entryY=0;entryDx=0;entryDy=0;" edge="1" parent="1" source="vmAebD6o5vECsE8aH-xc-20" target="vmAebD6o5vECsE8aH-xc-44">
          <mxGeometry relative="1" as="geometry" />
        </mxCell>
        <mxCell id="vmAebD6o5vECsE8aH-xc-20" value="&lt;font style=&quot;font-size: 18px;&quot;&gt;系统管理员&lt;/font&gt;" style="rounded=1;whiteSpace=wrap;html=1;absoluteArcSize=1;arcSize=0;strokeWidth=2;" vertex="1" parent="1">
          <mxGeometry x="660" y="520" width="100" height="35" as="geometry" />
        </mxCell>
        <mxCell id="vmAebD6o5vECsE8aH-xc-32" style="edgeStyle=orthogonalEdgeStyle;rounded=0;orthogonalLoop=1;jettySize=auto;html=1;exitX=0.5;exitY=1;exitDx=0;exitDy=0;entryX=0.5;entryY=0;entryDx=0;entryDy=0;" edge="1" parent="1" source="vmAebD6o5vECsE8aH-xc-21" target="vmAebD6o5vECsE8aH-xc-26">
          <mxGeometry relative="1" as="geometry">
            <mxPoint x="290" y="600" as="targetPoint" />
            <Array as="points">
              <mxPoint x="376" y="580" />
              <mxPoint x="298" y="580" />
            </Array>
          </mxGeometry>
        </mxCell>
        <mxCell id="vmAebD6o5vECsE8aH-xc-35" style="edgeStyle=orthogonalEdgeStyle;rounded=0;orthogonalLoop=1;jettySize=auto;html=1;exitX=0.5;exitY=1;exitDx=0;exitDy=0;entryX=0.5;entryY=0;entryDx=0;entryDy=0;" edge="1" parent="1" source="vmAebD6o5vECsE8aH-xc-21" target="vmAebD6o5vECsE8aH-xc-33">
          <mxGeometry relative="1" as="geometry">
            <Array as="points">
              <mxPoint x="376" y="580" />
              <mxPoint x="128" y="580" />
            </Array>
          </mxGeometry>
        </mxCell>
        <mxCell id="vmAebD6o5vECsE8aH-xc-21" value="&lt;font style=&quot;font-size: 18px;&quot;&gt;企业用户&lt;/font&gt;" style="rounded=1;whiteSpace=wrap;html=1;absoluteArcSize=1;arcSize=0;strokeWidth=2;" vertex="1" parent="1">
          <mxGeometry x="326.25" y="520" width="100" height="35" as="geometry" />
        </mxCell>
        <mxCell id="vmAebD6o5vECsE8aH-xc-31" style="edgeStyle=orthogonalEdgeStyle;rounded=0;orthogonalLoop=1;jettySize=auto;html=1;exitX=0.5;exitY=1;exitDx=0;exitDy=0;entryX=0.5;entryY=0;entryDx=0;entryDy=0;" edge="1" parent="1" source="vmAebD6o5vECsE8aH-xc-22" target="vmAebD6o5vECsE8aH-xc-26">
          <mxGeometry relative="1" as="geometry">
            <Array as="points">
              <mxPoint x="230" y="580" />
              <mxPoint x="298" y="580" />
            </Array>
          </mxGeometry>
        </mxCell>
        <mxCell id="vmAebD6o5vECsE8aH-xc-34" style="edgeStyle=orthogonalEdgeStyle;rounded=0;orthogonalLoop=1;jettySize=auto;html=1;exitX=0.5;exitY=1;exitDx=0;exitDy=0;entryX=0.5;entryY=0;entryDx=0;entryDy=0;" edge="1" parent="1" source="vmAebD6o5vECsE8aH-xc-22" target="vmAebD6o5vECsE8aH-xc-33">
          <mxGeometry relative="1" as="geometry">
            <Array as="points">
              <mxPoint x="230" y="580" />
              <mxPoint x="128" y="580" />
            </Array>
          </mxGeometry>
        </mxCell>
        <mxCell id="vmAebD6o5vECsE8aH-xc-40" style="edgeStyle=orthogonalEdgeStyle;rounded=0;orthogonalLoop=1;jettySize=auto;html=1;exitX=0.5;exitY=1;exitDx=0;exitDy=0;entryX=0.5;entryY=0;entryDx=0;entryDy=0;" edge="1" parent="1" source="vmAebD6o5vECsE8aH-xc-22" target="vmAebD6o5vECsE8aH-xc-36">
          <mxGeometry relative="1" as="geometry">
            <Array as="points">
              <mxPoint x="230" y="580" />
              <mxPoint x="500" y="580" />
            </Array>
          </mxGeometry>
        </mxCell>
        <mxCell id="vmAebD6o5vECsE8aH-xc-22" value="&lt;font style=&quot;font-size: 18px;&quot;&gt;应聘者&lt;/font&gt;" style="rounded=1;whiteSpace=wrap;html=1;absoluteArcSize=1;arcSize=0;strokeWidth=2;" vertex="1" parent="1">
          <mxGeometry x="180" y="520" width="100" height="40" as="geometry" />
        </mxCell>
        <mxCell id="vmAebD6o5vECsE8aH-xc-48" style="edgeStyle=orthogonalEdgeStyle;rounded=0;orthogonalLoop=1;jettySize=auto;html=1;exitX=0.5;exitY=1;exitDx=0;exitDy=0;" edge="1" parent="1" source="vmAebD6o5vECsE8aH-xc-26" target="vmAebD6o5vECsE8aH-xc-46">
          <mxGeometry relative="1" as="geometry">
            <mxPoint x="600" y="880" as="targetPoint" />
            <Array as="points">
              <mxPoint x="298" y="820" />
              <mxPoint x="783" y="820" />
            </Array>
          </mxGeometry>
        </mxCell>
        <mxCell id="vmAebD6o5vECsE8aH-xc-26" value="&lt;font style=&quot;font-size: 18px;&quot;&gt;查看&lt;/font&gt;&lt;span style=&quot;font-size: 18px; background-color: transparent; color: light-dark(rgb(0, 0, 0), rgb(255, 255, 255));&quot;&gt;/布置&lt;/span&gt;&lt;div&gt;&lt;div&gt;&lt;span style=&quot;font-size: 18px; background-color: transparent; color: light-dark(rgb(0, 0, 0), rgb(255, 255, 255));&quot;&gt;工作岗位信息&lt;/span&gt;&lt;/div&gt;&lt;/div&gt;" style="rounded=1;whiteSpace=wrap;html=1;absoluteArcSize=1;arcSize=0;strokeWidth=2;" vertex="1" parent="1">
          <mxGeometry x="230" y="610" width="135" height="65" as="geometry" />
        </mxCell>
        <mxCell id="vmAebD6o5vECsE8aH-xc-33" value="&lt;font style=&quot;font-size: 18px;&quot;&gt;查看&lt;/font&gt;&lt;span style=&quot;font-size: 18px; background-color: transparent; color: light-dark(rgb(0, 0, 0), rgb(255, 255, 255));&quot;&gt;/布置&lt;/span&gt;&lt;span style=&quot;background-color: transparent; color: light-dark(rgb(0, 0, 0), rgb(255, 255, 255)); font-size: 18px;&quot;&gt;留言&lt;/span&gt;" style="rounded=1;whiteSpace=wrap;html=1;absoluteArcSize=1;arcSize=0;strokeWidth=2;" vertex="1" parent="1">
          <mxGeometry x="60" y="610" width="135" height="65" as="geometry" />
        </mxCell>
        <mxCell id="vmAebD6o5vECsE8aH-xc-49" style="edgeStyle=orthogonalEdgeStyle;rounded=0;orthogonalLoop=1;jettySize=auto;html=1;exitX=0.5;exitY=1;exitDx=0;exitDy=0;" edge="1" parent="1" source="vmAebD6o5vECsE8aH-xc-36" target="vmAebD6o5vECsE8aH-xc-46">
          <mxGeometry relative="1" as="geometry">
            <Array as="points">
              <mxPoint x="510" y="675" />
              <mxPoint x="510" y="820" />
              <mxPoint x="783" y="820" />
            </Array>
          </mxGeometry>
        </mxCell>
        <mxCell id="vmAebD6o5vECsE8aH-xc-36" value="&lt;font style=&quot;font-size: 18px;&quot;&gt;查看&lt;/font&gt;&lt;span style=&quot;font-size: 18px; background-color: transparent; color: light-dark(rgb(0, 0, 0), rgb(255, 255, 255));&quot;&gt;/布置&lt;/span&gt;&lt;div&gt;&lt;span style=&quot;font-size: 18px;&quot;&gt;面试邀请&lt;/span&gt;&lt;/div&gt;" style="rounded=1;whiteSpace=wrap;html=1;absoluteArcSize=1;arcSize=0;strokeWidth=2;" vertex="1" parent="1">
          <mxGeometry x="432.5" y="610" width="135" height="65" as="geometry" />
        </mxCell>
        <mxCell id="vmAebD6o5vECsE8aH-xc-42" value="&lt;span style=&quot;font-size: 18px;&quot;&gt;管理系统用户信息&lt;/span&gt;" style="rounded=1;whiteSpace=wrap;html=1;absoluteArcSize=1;arcSize=0;strokeWidth=2;" vertex="1" parent="1">
          <mxGeometry x="605" y="600" width="45" height="120" as="geometry" />
        </mxCell>
        <mxCell id="vmAebD6o5vECsE8aH-xc-44" value="&lt;span style=&quot;font-size: 18px;&quot;&gt;管理系统功能信息&lt;/span&gt;" style="rounded=1;whiteSpace=wrap;html=1;absoluteArcSize=1;arcSize=0;strokeWidth=2;" vertex="1" parent="1">
          <mxGeometry x="760" y="600" width="45" height="120" as="geometry" />
        </mxCell>
        <mxCell id="vmAebD6o5vECsE8aH-xc-46" value="&lt;font style=&quot;font-size: 18px;&quot;&gt;结束&lt;/font&gt;" style="strokeWidth=2;html=1;shape=mxgraph.flowchart.start_1;whiteSpace=wrap;" vertex="1" parent="1">
          <mxGeometry x="722.5" y="910" width="120" height="40" as="geometry" />
        </mxCell>
        <mxCell id="vmAebD6o5vECsE8aH-xc-47" style="edgeStyle=orthogonalEdgeStyle;rounded=0;orthogonalLoop=1;jettySize=auto;html=1;exitX=0.5;exitY=1;exitDx=0;exitDy=0;entryX=0.5;entryY=0;entryDx=0;entryDy=0;entryPerimeter=0;" edge="1" parent="1" source="vmAebD6o5vECsE8aH-xc-33" target="vmAebD6o5vECsE8aH-xc-46">
          <mxGeometry relative="1" as="geometry">
            <Array as="points">
              <mxPoint x="128" y="820" />
              <mxPoint x="783" y="820" />
              <mxPoint x="783" y="890" />
            </Array>
          </mxGeometry>
        </mxCell>
        <mxCell id="vmAebD6o5vECsE8aH-xc-51" style="edgeStyle=orthogonalEdgeStyle;rounded=0;orthogonalLoop=1;jettySize=auto;html=1;exitX=0.5;exitY=1;exitDx=0;exitDy=0;entryX=0.5;entryY=0;entryDx=0;entryDy=0;entryPerimeter=0;" edge="1" parent="1" source="vmAebD6o5vECsE8aH-xc-44" target="vmAebD6o5vECsE8aH-xc-46">
          <mxGeometry relative="1" as="geometry">
            <Array as="points">
              <mxPoint x="745" y="820" />
              <mxPoint x="783" y="820" />
              <mxPoint x="783" y="890" />
            </Array>
          </mxGeometry>
        </mxCell>
        <mxCell id="vmAebD6o5vECsE8aH-xc-56" style="edgeStyle=orthogonalEdgeStyle;rounded=0;orthogonalLoop=1;jettySize=auto;html=1;exitX=0.5;exitY=1;exitDx=0;exitDy=0;entryX=0.5;entryY=0;entryDx=0;entryDy=0;entryPerimeter=0;" edge="1" parent="1" source="vmAebD6o5vECsE8aH-xc-42" target="vmAebD6o5vECsE8aH-xc-46">
          <mxGeometry relative="1" as="geometry">
            <Array as="points">
              <mxPoint x="628" y="820" />
              <mxPoint x="783" y="820" />
            </Array>
          </mxGeometry>
        </mxCell>
      </root>
    </mxGraphModel>
  </diagram>
</mxfile>
